<?xml version="1.0" standalone="no"?>
<!DOCTYPE svg PUBLIC "-//W3C//DTD SVG 20010904//EN"
 "http://www.w3.org/TR/2001/REC-SVG-20010904/DTD/svg10.dtd">
<svg version="1.0" xmlns="http://www.w3.org/2000/svg"
 width="216.000000pt" height="131.000000pt" viewBox="0 0 216.000000 131.000000"
 preserveAspectRatio="xMidYMid meet">

<g transform="translate(0.000000,131.000000) scale(0.100000,-0.100000)"
fill="#000000" stroke="none">
<path d="M307 823 c-4 -3 -7 -80 -7 -170 l0 -163 106 0 c95 0 105 2 102 18 -3
14 -16 17 -86 20 l-82 3 0 149 c0 118 -3 150 -13 150 -8 0 -17 -3 -20 -7z"/>
<path d="M1210 767 l0 -64 -39 19 c-73 36 -131 -4 -139 -95 -5 -59 14 -109 47
-127 31 -16 76 -12 105 11 l26 20 0 -20 c0 -14 6 -21 20 -21 20 0 20 5 18 167
-3 151 -5 168 -20 171 -16 3 -18 -5 -18 -61z m-27 -85 c70 -77 -20 -215 -93
-142 -25 25 -27 105 -4 138 19 28 74 30 97 4z"/>
<path d="M1310 800 c0 -13 7 -20 20 -20 13 0 20 7 20 20 0 13 -7 20 -20 20
-13 0 -20 -7 -20 -20z"/>
<path d="M600 723 c-42 -22 -60 -54 -60 -110 0 -79 40 -123 112 -123 43 0 76
24 94 66 47 112 -46 217 -146 167z m86 -31 c40 -27 46 -111 9 -147 -42 -43
-98 -28 -114 30 -10 37 -1 86 20 111 12 15 66 19 85 6z"/>
<path d="M844 726 c-28 -13 -44 -33 -44 -57 0 -16 25 -10 43 11 23 28 82 27
97 -1 19 -34 6 -46 -54 -51 -65 -5 -96 -28 -96 -70 0 -62 79 -90 134 -47 l26
20 0 -20 c0 -12 6 -21 15 -21 12 0 15 18 15 105 0 98 -1 105 -23 120 -35 22
-78 27 -113 11z m106 -140 c0 -7 -9 -25 -21 -40 -20 -25 -50 -33 -83 -20 -19
7 -21 45 -4 62 17 17 108 16 108 -2z"/>
<path d="M1478 721 c-30 -15 -38 -16 -38 -5 0 8 -7 14 -15 14 -12 0 -15 -20
-15 -120 0 -113 1 -120 20 -120 19 0 20 7 20 89 0 100 10 121 60 121 50 0 60
-21 60 -121 0 -84 1 -89 21 -89 21 0 21 4 17 100 -3 83 -7 103 -23 119 -31 30
-65 34 -107 12z"/>
<path d="M1714 730 c-12 -4 -31 -21 -43 -36 -26 -33 -29 -110 -6 -155 27 -50
93 -64 139 -28 l26 20 0 -30 c0 -62 -76 -95 -120 -51 -21 21 -50 27 -50 10 0
-17 38 -49 65 -56 39 -10 90 4 116 32 22 24 24 34 27 160 4 131 3 134 -17 134
-12 0 -21 -6 -21 -14 0 -11 -8 -10 -37 5 -41 21 -48 22 -79 9z m89 -48 c24
-26 32 -77 17 -112 -35 -85 -130 -55 -130 40 0 60 21 90 64 90 19 0 40 -8 49
-18z"/>
<path d="M1310 610 c0 -113 1 -120 20 -120 19 0 20 7 20 120 0 113 -1 120 -20
120 -19 0 -20 -7 -20 -120z"/>
</g>
</svg>
