<svg width="391.76870117187497px" height="249.202490234375px" xmlns="http://www.w3.org/2000/svg" viewBox="54.11564941406252 -49.6012451171875 391.76870117187497 249.202490234375" style="background: rgba(0, 0, 0, 0);" preserveAspectRatio="xMidYMid"><defs><linearGradient id="editing-outline-gradient" x1="-0.41354545764260087" x2="1.4135454576426008" y1="0.09326335692419985" y2="0.9067366430758002"><stop offset="0" stop-color="#ee4208"></stop><stop offset="1" stop-color="#4139ff"></stop></linearGradient><filter id="editing-outline" x="-100%" y="-100%" width="300%" height="300%"><feMorphology in="SourceGraphic" operator="dilate" radius="1" result="outline"></feMorphology><feComposite operator="out" in="outline" in2="SourceAlpha"></feComposite></filter></defs><g filter="url(#editing-outline)"><g transform="translate(114.9830870628357, 124.9749984741211)"><path d="M28.07-87.48L28.07-87.48L28.07-87.48Q27.59-88.57 27.83-88.57L27.83-88.57L27.83-88.57Q28.19-88.57 28.68-88.03L28.68-88.03L28.68-88.03Q29.16-87.48 29.28-87.36L29.28-87.36L29.28-87.36Q30.49-85.55 31.94-83.43L31.94-83.43L31.94-83.43Q33.40-81.31 34.73-78.41L34.73-78.41L34.73-78.41Q36.06-75.50 37.15-71.69L37.15-71.69L37.15-71.69Q38.24-67.88 38.84-62.68L38.84-62.68L38.84-62.68Q39.57-56.75 39.14-51.00L39.14-51.00L39.14-51.00Q38.72-45.25 37.75-39.45L37.75-39.45L37.75-39.45Q37.63-39.20 37.51-38.24L37.51-38.24L37.51-38.24Q37.39-37.27 37.03-37.27L37.03-37.27L37.03-37.27Q36.78-37.27 36.54-38.18L36.54-38.18L36.54-38.18Q36.30-39.08 36.30-39.45L36.30-39.45L36.30-39.45Q36.06-40.78 35.82-42.59L35.82-42.59L35.82-42.59Q35.57-44.41 35.39-46.40L35.39-46.40L35.39-46.40Q35.21-48.40 35.15-50.28L35.15-50.28L35.15-50.28Q35.09-52.15 35.09-53.60L35.09-53.60L35.09-53.60Q35.09-54.09 35.03-55.72L35.03-55.72L35.03-55.72Q34.97-57.35 34.85-59.53L34.85-59.53L34.85-59.53Q34.73-61.71 34.42-64.31L34.42-64.31L34.42-64.31Q34.12-66.91 33.76-69.45L33.76-69.45L33.76-69.45Q34.00-65.70 33.76-61.95L33.76-61.95L33.76-61.95Q33.52-58.20 33.15-54.39L33.15-54.39L33.15-54.39Q32.79-50.58 32.55-46.77L32.55-46.77L32.55-46.77Q32.31-42.95 32.55-39.08L32.55-39.08L32.55-39.08Q32.91-31.58 35.57-23.84L35.57-23.84L35.57-23.84Q38.24-16.09 44.04-10.65L44.04-10.65L44.04-10.65Q44.77-9.92 44.65-9.92L44.65-9.92L44.65-9.92Q44.41-9.80 43.80-10.16L43.80-10.16L43.80-10.16Q39.57-12.58 36.78-15.97L36.78-15.97L36.78-15.97Q34.00-19.36 32.25-23.35L32.25-23.35L32.25-23.35Q30.49-27.35 29.64-31.64L29.64-31.64L29.64-31.64Q28.80-35.94 28.68-40.29L28.68-40.29L28.68-40.29Q28.68-40.66 28.62-40.96L28.62-40.96L28.62-40.96Q28.56-41.26 28.56-41.62L28.56-41.62L28.56-41.62Q26.14-34.73 23.17-28.31L23.17-28.31L23.17-28.31Q20.21-21.90 17.36-15.97L17.36-15.97L17.36-15.97Q14.52-10.04 12.04-4.78L12.04-4.78L12.04-4.78Q9.56 0.48 8.11 4.96L8.11 4.96L8.11 4.96Q7.87 5.57 7.74 5.57L7.74 5.57L7.74 5.57Q7.50 5.57 7.50 5.20L7.50 5.20L7.50 5.20Q7.50 4.84 7.50 4.72L7.50 4.72L7.50 4.72Q7.62-0.97 9.80-7.20L9.80-7.20L9.80-7.20Q11.98-13.43 14.94-20.15L14.94-20.15L14.94-20.15Q17.91-26.86 21.18-33.94L21.18-33.94L21.18-33.94Q24.44-41.02 26.86-48.40L26.86-48.40L26.86-48.40Q28.31-53.12 29.34-58.20L29.34-58.20L29.34-58.20Q30.37-63.28 30.61-68.36L30.61-68.36L30.61-68.36Q30.86-73.45 30.25-78.35L30.25-78.35L30.25-78.35Q29.64-83.25 28.07-87.48ZM43.08-17.79L43.08-17.79L43.08-17.79Q44.41-15.00 46.59-12.58L46.59-12.58L46.59-12.58Q47.43-17.67 49.85-22.69L49.85-22.69L49.85-22.69Q52.27-27.71 55.36-32.79L55.36-32.79L55.36-32.79Q58.44-37.87 61.83-42.95L61.83-42.95L61.83-42.95Q65.22-48.04 68.12-53.24L68.12-53.24L68.12-53.24Q70.30-56.99 71.81-61.35L71.81-61.35L71.81-61.35Q73.33-65.70 73.99-70.24L73.99-70.24L73.99-70.24Q74.66-74.78 74.35-79.25L74.35-79.25L74.35-79.25Q74.05-83.73 72.48-87.72L72.48-87.72L72.48-87.72Q72.12-88.33 72.36-88.57L72.36-88.57L72.36-88.57Q72.60-88.81 73.14-88.27L73.14-88.27L73.14-88.27Q73.69-87.72 73.81-87.48L73.81-87.48L73.81-87.48Q75.26-85.43 76.17-82.10L76.17-82.10L76.17-82.10Q77.08-78.77 77.50-74.72L77.50-74.72L77.50-74.72Q77.92-70.66 77.92-66.19L77.92-66.19L77.92-66.19Q77.92-61.71 77.56-57.23L77.56-57.23L77.56-57.23Q77.08-51.30 75.81-44.29L75.81-44.29L75.81-44.29Q74.54-37.27 72.72-31.46L72.72-31.46L72.72-31.46Q72.60-31.22 72.30-30.37L72.30-30.37L72.30-30.37Q72.00-29.52 71.63-29.52L71.63-29.52L71.63-29.52Q71.39-29.64 71.27-30.55L71.27-30.55L71.27-30.55Q71.15-31.46 71.15-31.70L71.15-31.70L71.15-31.70Q71.15-33.03 71.21-34.91L71.21-34.91L71.21-34.91Q71.27-36.78 71.39-38.78L71.39-38.78L71.39-38.78Q71.51-40.78 71.69-42.65L71.69-42.65L71.69-42.65Q71.87-44.53 72.12-45.86L72.12-45.86L72.12-45.86Q72.24-46.59 72.54-49.19L72.54-49.19L72.54-49.19Q72.84-51.79 73.08-55.05L73.08-55.05L73.08-55.05Q71.63-51.67 70.78-49.00L70.78-49.00L70.78-49.00Q69.94-46.34 69.33-43.80L69.33-43.80L69.33-43.80Q68.73-41.26 68.30-38.48L68.30-38.48L68.30-38.48Q67.88-35.70 67.52-31.94L67.52-31.94L67.52-31.94Q67.16-28.19 67.22-24.08L67.22-24.08L67.22-24.08Q67.28-19.96 68.06-15.97L68.06-15.97L68.06-15.97Q68.85-11.98 70.36-8.17L70.36-8.17L70.36-8.17Q71.87-4.36 74.29-1.21L74.29-1.21L74.29-1.21Q74.78-0.48 74.54-0.36L74.54-0.36L74.54-0.36Q74.29-0.24 73.93-0.60L73.93-0.60L73.93-0.60Q70.06-3.75 67.82-7.68L67.82-7.68L67.82-7.68Q65.58-11.62 64.49-15.97L64.49-15.97L64.49-15.97Q63.40-20.33 63.34-24.87L63.34-24.87L63.34-24.87Q63.28-29.40 63.77-33.76L63.77-33.76L63.77-33.76Q64.01-35.33 64.19-36.91L64.19-36.91L64.19-36.91Q64.37-38.48 64.61-40.17L64.61-40.17L64.61-40.17Q61.83-35.70 59.05-31.46L59.05-31.46L59.05-31.46Q56.27-27.22 53.84-23.05L53.84-23.05L53.84-23.05Q51.42-18.88 49.55-14.82L49.55-14.82L49.55-14.82Q47.67-10.77 46.71-6.78L46.71-6.78L46.71-6.78Q46.46-6.17 46.46-6.17L46.46-6.17L46.46-6.17Q46.22-6.17 46.22-6.65L46.22-6.65L46.22-6.65Q46.22-7.14 46.22-7.26L46.22-7.26L46.22-7.26Q46.22-8.23 46.22-9.20L46.22-9.20L46.22-9.20Q46.22-10.16 46.46-11.13L46.46-11.13L46.46-11.13Q45.50-11.62 44.77-12.04L44.77-12.04L44.77-12.04Q44.04-12.46 43.38-13.07L43.38-13.07L43.38-13.07Q42.71-13.67 42.05-14.52L42.05-14.52L42.05-14.52Q41.38-15.37 40.66-16.70L40.66-16.70L40.66-16.70Q40.05-17.91 39.45-19.60L39.45-19.60L39.45-19.60Q38.84-21.30 38.42-22.93L38.42-22.93L38.42-22.93Q37.99-24.56 37.93-25.71L37.93-25.71L37.93-25.71Q37.87-26.86 38.24-26.86L38.24-26.86L38.24-26.86Q38.48-26.86 38.78-26.44L38.78-26.44L38.78-26.44Q39.08-26.02 39.45-25.41L39.45-25.41L39.45-25.41Q39.81-24.80 40.05-24.20L40.05-24.20L40.05-24.20Q40.29-23.59 40.41-23.35L40.41-23.35L40.41-23.35Q41.02-21.90 41.68-20.51L41.68-20.51L41.68-20.51Q42.35-19.12 43.08-17.79ZM45.62-41.38L45.62-40.17L45.62-40.17Q48.28-45.38 51.12-50.28L51.12-50.28L51.12-50.28Q53.97-55.18 55.66-58.08L55.66-58.08L55.66-58.08Q58.56-63.28 61.71-68.30L61.71-68.30L61.71-68.30Q64.86-73.33 67.16-77.20L67.16-77.20L67.16-77.20Q67.40-77.80 67.70-78.29L67.70-78.29L67.70-78.29Q68.00-78.77 68.24-78.53L68.24-78.53L68.24-78.53Q68.49-78.53 68.36-77.92L68.36-77.92L68.36-77.92Q68.24-77.32 68.12-76.71L68.12-76.71L68.12-76.71Q66.43-68.00 62.01-60.26L62.01-60.26L62.01-60.26Q57.60-52.51 52.76-44.65L52.76-44.65L52.76-44.65Q51.06-41.99 49.79-40.23L49.79-40.23L49.79-40.23Q48.52-38.48 47.61-36.84L47.61-36.84L47.61-36.84Q46.71-35.21 46.10-33.27L46.10-33.27L46.10-33.27Q45.50-31.34 45.25-28.31L45.25-28.31L45.25-28.31Q45.74-29.64 46.34-30.86L46.34-30.86L46.34-30.86Q46.95-32.06 47.55-33.15L47.55-33.15L47.55-33.15Q50.94-38.96 55.18-44.77L55.18-44.77L55.18-44.77Q59.41-50.58 63.52-55.66L63.52-55.66L63.52-55.66Q63.77-55.90 64.43-56.69L64.43-56.69L64.43-56.69Q65.10-57.48 65.34-57.35L65.34-57.35L65.34-57.35Q65.58-57.23 65.28-56.27L65.28-56.27L65.28-56.27Q64.98-55.30 64.86-54.81L64.86-54.81L64.86-54.81Q64.25-53.48 63.34-51.55L63.34-51.55L63.34-51.55Q62.44-49.61 61.41-47.61L61.41-47.61L61.41-47.61Q60.38-45.62 59.29-43.74L59.29-43.74L59.29-43.74Q58.20-41.87 57.35-40.66L57.35-40.66L57.35-40.66Q56.87-39.93 55.30-37.75L55.30-37.75L55.30-37.75Q53.72-35.57 51.91-32.31L51.91-32.31L51.91-32.31Q50.09-29.04 48.34-24.93L48.34-24.93L48.34-24.93Q46.59-20.81 45.74-16.21L45.74-16.21L45.74-16.21Q45.38-16.94 44.83-18.03L44.83-18.03L44.83-18.03Q44.29-19.12 43.56-21.54L43.56-21.54L43.56-21.54Q41.38-29.16 41.20-36.97L41.20-36.97L41.20-36.97Q41.02-44.77 41.14-53.00L41.14-53.00L41.14-53.00Q41.26-58.20 41.20-63.40L41.20-63.40L41.20-63.40Q41.14-68.61 39.45-74.41L39.45-74.41L39.45-74.41Q39.32-74.90 39.45-75.14L39.45-75.14L39.45-75.14Q39.69-75.14 40.17-74.41L40.17-74.41L40.17-74.41Q42.35-72.12 43.44-67.70L43.44-67.70L43.44-67.70Q44.53-63.28 45.01-58.38L45.01-58.38L45.01-58.38Q45.50-53.48 45.56-48.82L45.56-48.82L45.56-48.82Q45.62-44.16 45.62-41.38L45.62-41.38ZM13.79-50.70L13.79-50.70L13.79-50.70Q15.85-56.99 18.45-63.40L18.45-63.40L18.45-63.40Q21.05-69.82 22.99-74.90L22.99-74.90L22.99-74.90Q23.23-75.50 23.53-76.11L23.53-76.11L23.53-76.11Q23.84-76.71 24.08-76.59L24.08-76.59L24.08-76.59Q24.32-76.59 24.26-75.81L24.26-75.81L24.26-75.81Q24.20-75.02 24.20-74.41L24.20-74.41L24.20-74.41Q23.11-64.49 19.84-54.69L19.84-54.69L19.84-54.69Q16.58-44.89 12.58-35.33L12.58-35.33L12.58-35.33Q10.16-29.28 7.38-23.17L7.38-23.17L7.38-23.17Q4.60-17.06 2.78-9.92L2.78-9.92L2.78-9.92Q2.54-9.32 2.60-9.20L2.60-9.20L2.60-9.20Q2.66-9.07 2.54-9.07L2.54-9.07L2.54-9.07Q2.18-9.32 2.18-10.16L2.18-10.16L2.18-10.16Q1.57-13.79 2.90-19.30L2.90-19.30L2.90-19.30Q4.23-24.80 6.29-30.67L6.29-30.67L6.29-30.67Q8.35-36.54 10.53-41.93L10.53-41.93L10.53-41.93Q12.71-47.31 13.79-50.70ZM8.59-21.90L8.59-21.90L8.59-21.90Q11.62-28.80 15.13-36.12L15.13-36.12L15.13-36.12Q18.63-43.44 21.90-50.09L21.90-50.09L21.90-50.09Q22.02-50.46 22.57-51.42L22.57-51.42L22.57-51.42Q23.11-52.39 23.59-52.27L23.59-52.27L23.59-52.27Q23.84-52.27 23.72-51.18L23.72-51.18L23.72-51.18Q23.59-50.09 23.35-49.61L23.35-49.61L23.35-49.61Q22.99-47.92 22.38-45.56L22.38-45.56L22.38-45.56Q21.78-43.20 20.99-40.72L20.99-40.72L20.99-40.72Q20.21-38.24 19.36-35.88L19.36-35.88L19.36-35.88Q18.51-33.52 17.79-31.94L17.79-31.94L17.79-31.94Q17.42-31.22 16.52-28.86L16.52-28.86L16.52-28.86Q15.61-26.50 14.34-23.23L14.34-23.23L14.34-23.23Q13.07-19.96 11.68-16.27L11.68-16.27L11.68-16.27Q10.29-12.58 9.07-9.26L9.07-9.26L9.07-9.26Q7.87-5.93 6.96-3.33L6.96-3.33L6.96-3.33Q6.05-0.73 5.93 0.36L5.93 0.36L5.93 0.36Q5.69 1.57 5.45 1.57L5.45 1.57L5.45 1.57Q5.20 1.57 5.14 1.09L5.14 1.09L5.14 1.09Q5.08 0.60 4.96 0.36L4.96 0.36L4.96 0.36Q4.36-1.09 4.42-3.87L4.42-3.87L4.42-3.87Q4.48-6.65 5.08-9.80L5.08-9.80L5.08-9.80Q5.69-12.95 6.59-16.21L6.59-16.21L6.59-16.21Q7.50-19.48 8.59-21.90ZM80.71-32.31L80.71-32.31L80.71-32.31Q80.10-26.86 78.83-21.42L78.83-21.42L78.83-21.42Q77.56-15.97 76.59-11.74L76.59-11.74L76.59-11.74Q76.11-10.16 75.87-10.29L75.87-10.29L75.87-10.29Q75.63-10.29 75.56-10.83L75.56-10.83L75.56-10.83Q75.50-11.37 75.38-11.98L75.38-11.98L75.38-11.98Q74.41-20.09 75.63-28.19L75.63-28.19L75.63-28.19Q76.83-36.30 78.29-44.77L78.29-44.77L78.29-44.77Q79.25-49.85 79.86-55.24L79.86-55.24L79.86-55.24Q80.47-60.62 79.86-66.79L79.86-66.79L79.86-66.79Q79.86-67.28 80.10-67.52L80.10-67.52L80.10-67.52Q80.34-67.52 80.40-67.22L80.40-67.22L80.40-67.22Q80.47-66.91 80.71-66.79L80.71-66.79L80.71-66.79Q82.52-64.13 82.82-59.47L82.82-59.47L82.82-59.47Q83.13-54.81 82.76-49.73L82.76-49.73L82.76-49.73Q82.40-44.65 81.74-39.93L81.74-39.93L81.74-39.93Q81.07-35.21 80.71-32.31ZM25.89-78.53L25.89-78.53L25.89-78.53Q25.65-81.07 25.23-83.25L25.23-83.25L25.23-83.25Q24.80-85.43 24.20-87.72L24.20-87.72L24.20-87.72Q24.08-87.97 24.08-88.33L24.08-88.33L24.08-88.33Q24.08-88.69 24.20-88.69L24.20-88.69L24.20-88.69Q24.56-88.69 24.93-88.33L24.93-88.33L25.41-87.85L25.41-87.85Q26.74-86.03 27.59-84.28L27.59-84.28L27.59-84.28Q28.43-82.52 28.68-78.53L28.68-78.53L28.68-78.53Q28.80-76.96 28.68-74.66L28.68-74.66L28.68-74.66Q28.56-72.36 28.25-70.30L28.25-70.30L28.25-70.30Q27.95-68.24 27.53-66.79L27.53-66.79L27.53-66.79Q27.10-65.34 26.74-65.46L26.74-65.46L26.74-65.46Q26.50-65.46 26.38-66.13L26.38-66.13L26.38-66.13Q26.26-66.79 26.20-67.64L26.20-67.64L26.20-67.64Q26.14-68.49 26.14-69.39L26.14-69.39L26.14-69.39Q26.14-70.30 26.14-70.66L26.14-70.66L26.14-70.66Q26.14-72.72 26.14-74.60L26.14-74.60L26.14-74.60Q26.14-76.47 25.89-78.53ZM70.18-80.10L70.18-80.10L70.18-80.10Q70.06-82.28 69.76-84.22L69.76-84.22L69.76-84.22Q69.45-86.15 68.85-88.21L68.85-88.21L68.85-88.21Q68.73-88.45 68.67-88.81L68.67-88.81L68.67-88.81Q68.61-89.18 68.85-89.06L68.85-89.06L68.85-89.06Q69.09-88.81 69.27-88.69L69.27-88.69L69.27-88.69Q69.45-88.57 69.70-88.45L69.70-88.45L69.94-88.21L69.94-88.21Q71.27-86.52 72.06-84.94L72.06-84.94L72.06-84.94Q72.84-83.37 72.96-79.74L72.96-79.74L72.96-79.74Q72.96-78.41 72.66-76.35L72.66-76.35L72.66-76.35Q72.36-74.29 71.93-72.42L71.93-72.42L71.93-72.42Q71.51-70.54 70.97-69.27L70.97-69.27L70.97-69.27Q70.42-68.00 69.94-68.24L69.94-68.24L69.94-68.24Q69.70-68.36 69.70-69.03L69.70-69.03L69.70-69.03Q69.70-69.70 69.70-70.48L69.70-70.48L69.70-70.48Q69.70-71.27 69.82-72.00L69.82-72.00L69.82-72.00Q69.94-72.72 69.94-73.08L69.94-73.08L69.94-73.08Q70.18-75.02 70.24-76.71L70.24-76.71L70.24-76.71Q70.30-78.41 70.18-80.10ZM74.41-8.47L74.41-8.47L74.41-8.47Q75.14-6.41 76.05-4.72L76.05-4.72L76.05-4.72Q76.96-3.02 77.92-1.33L77.92-1.33L77.92-1.33Q78.05-1.21 78.17-0.91L78.17-0.91L78.17-0.91Q78.29-0.60 78.05-0.60L78.05-0.60L78.05-0.60Q77.68-0.60 77.50-0.73L77.50-0.73L77.50-0.73Q77.32-0.85 77.08-0.97L77.08-0.97L77.08-0.97Q76.83-1.09 76.71-1.21L76.71-1.21L76.71-1.21Q75.02-2.54 73.93-3.75L73.93-3.75L73.93-3.75Q72.84-4.96 71.75-8.11L71.75-8.11L71.75-8.11Q71.39-9.32 71.03-11.13L71.03-11.13L71.03-11.13Q70.66-12.95 70.54-14.64L70.54-14.64L70.54-14.64Q70.42-16.34 70.54-17.54L70.54-17.54L70.54-17.54Q70.66-18.75 71.15-18.75L71.15-18.75L71.15-18.75Q71.27-18.75 71.51-18.21L71.51-18.21L71.51-18.21Q71.75-17.67 71.93-17.00L71.93-17.00L71.93-17.00Q72.12-16.34 72.30-15.67L72.30-15.67L72.30-15.67Q72.48-15.00 72.60-14.76L72.60-14.76L72.60-14.76Q73.20-13.07 73.57-11.49L73.57-11.49L73.57-11.49Q73.93-9.92 74.41-8.47ZM101.76-40.29L101.76-40.29L101.76-40.29Q100.79-36.18 99.04-31.64L99.04-31.64L99.04-31.64Q97.28-27.10 95.11-23.23L95.11-23.23L95.11-23.23Q95.11-22.99 94.80-22.45L94.80-22.45L94.80-22.45Q94.50-21.90 94.02-21.90L94.02-21.90L94.02-21.90Q93.77-21.90 93.71-22.63L93.71-22.63L93.71-22.63Q93.65-23.35 93.77-23.59L93.77-23.59L93.77-23.59Q93.77-25.53 94.26-28.74L94.26-28.74L94.26-28.74Q94.74-31.94 95.47-34.00L95.47-34.00L95.47-34.00Q95.71-34.73 96.26-37.51L96.26-37.51L96.26-37.51Q96.80-40.29 97.22-43.74L97.22-43.74L97.22-43.74Q97.65-47.19 97.71-50.40L97.71-50.40L97.71-50.40Q97.77-53.60 96.92-55.18L96.92-55.18L96.92-55.66L96.92-55.66Q97.41-56.02 98.01-55.42L98.01-55.42L98.01-55.42Q99.58-54.09 100.49-52.15L100.49-52.15L100.49-52.15Q101.40-50.21 101.82-48.10L101.82-48.10L101.82-48.10Q102.24-45.98 102.18-43.92L102.18-43.92L102.18-43.92Q102.12-41.87 101.76-40.29ZM106.48-40.78L106.48-40.78L106.48-40.78Q107.81-42.47 109.02-43.20L109.02-43.20L109.02-43.20Q110.23-43.92 111.44-44.41L111.44-44.41L111.44-44.41Q111.56-44.41 112.05-44.53L112.05-44.53L112.05-44.53Q112.53-44.65 112.77-44.29L112.77-44.29L112.77-44.29Q113.01-43.92 112.65-43.44L112.65-43.44L112.65-43.44Q112.29-42.95 112.05-42.71L112.05-42.71L112.05-42.71Q111.20-41.87 110.17-40.84L110.17-40.84L110.17-40.84Q109.14-39.81 108.29-38.84L108.29-38.84L108.29-38.84Q107.08-37.51 106.36-35.76L106.36-35.76L106.36-35.76Q105.63-34.00 105.27-32.19L105.27-32.19L105.27-32.19Q107.33-34.36 109.20-36.30L109.20-36.30L109.20-36.30Q111.08-38.24 113.26-39.93L113.26-39.93L113.26-39.93Q116.04-41.99 118.10-45.25L118.10-45.25L118.10-45.25Q120.15-48.52 121-54.81L121-54.81L121-54.81Q121.24-55.42 121.60-55.54L121.60-55.54L121.60-55.54Q121.97-55.66 121.97-54.69L121.97-54.69L121.97-54.69Q122.33-47.67 120.52-43.56L120.52-43.56L120.52-43.56Q118.70-39.45 115.07-36.66L115.07-36.66L115.07-36.66Q113.13-35.21 111.20-33.52L111.20-33.52L111.20-33.52Q109.26-31.82 107.51-29.77L107.51-29.77L107.51-29.77Q105.75-27.71 104.30-24.93L104.30-24.93L104.30-24.93Q102.85-22.14 101.76-18.51L101.76-18.51L101.76-18.51Q100.91-15.73 100.07-13.25L100.07-13.25L100.07-13.25Q99.22-10.77 98.25-8.47L98.25-8.47L98.25-8.47Q98.01-7.62 97.53-7.62L97.53-7.62L97.53-7.62Q97.16-7.74 97.16-8.83L97.16-8.83L97.16-8.83Q96.56-14.64 97.95-20.39L97.95-20.39L97.95-20.39Q99.34-26.14 101.28-32.31L101.28-32.31L101.28-32.31Q102.12-35.33 103.27-38.36L103.27-38.36L103.27-38.36Q104.42-41.38 104.30-45.25L104.30-45.25L104.30-45.25Q104.30-46.59 105.39-48.04L105.39-48.04L105.39-48.04Q106.48-49.49 108.05-50.76L108.05-50.76L108.05-50.76Q109.63-52.03 111.32-52.94L111.32-52.94L111.32-52.94Q113.01-53.84 114.22-54.21L114.22-54.21L114.22-54.21Q115.31-54.57 115.31-54.09L115.31-54.09L115.31-54.09Q115.31-53.60 114.59-52.88L114.59-52.88L114.59-52.88Q112.05-50.58 109.44-47.43L109.44-47.43L109.44-47.43Q106.84-44.29 106.48-40.78ZM95.95-0.12L95.95-0.12L95.95-0.12Q95.83 0 95.77-0.06L95.77-0.06L95.77-0.06Q95.71-0.12 95.11-0.48L95.11-0.48L95.11-0.48Q91.48-3.15 89.42-6.29L89.42-6.29L89.42-6.29Q87.36-9.44 86.45-12.77L86.45-12.77L86.45-12.77Q85.55-16.09 85.67-19.42L85.67-19.42L85.67-19.42Q85.79-22.75 86.52-25.89L86.52-25.89L86.52-25.89Q87.48-30.13 88.87-34.30L88.87-34.30L88.87-34.30Q90.27-38.48 91.48-42.41L91.48-42.41L91.48-42.41Q92.69-46.34 93.29-50.15L93.29-50.15L93.29-50.15Q93.90-53.97 93.29-57.48L93.29-57.48L93.29-57.48Q93.29-57.72 93.65-57.84L93.65-57.84L93.65-57.84Q93.77-57.84 93.90-57.66L93.90-57.66L93.90-57.66Q94.02-57.48 94.14-57.35L94.14-57.35L94.14-57.35Q96.44-53.48 96.44-49.43L96.44-49.43L96.44-49.43Q96.44-45.38 95.35-41.20L95.35-41.20L95.35-41.20Q94.26-37.03 92.63-32.73L92.63-32.73L92.63-32.73Q90.99-28.43 90.02-24.08L90.02-24.08L90.02-24.08Q88.81-18.51 89.84-12.22L89.84-12.22L89.84-12.22Q90.87-5.93 95.47-0.97L95.47-0.97L95.47-0.97Q95.71-0.60 95.95-0.48L95.95-0.48L95.95-0.48Q96.19-0.36 95.95-0.12ZM99.58 0L99.58 0L99.58 0Q99.34 0 99.10-0.12L99.10-0.12L98.61-0.36L98.61-0.36Q96.92-1.45 95.59-2.72L95.59-2.72L95.59-2.72Q94.26-3.99 93.29-6.41L93.29-6.41L93.29-6.41Q92.93-7.26 92.69-8.65L92.69-8.65L92.69-8.65Q92.44-10.04 92.38-11.25L92.38-11.25L92.38-11.25Q92.32-12.46 92.50-13.31L92.50-13.31L92.50-13.31Q92.69-14.16 93.17-14.04L93.17-14.04L93.17-14.04Q93.53-14.04 93.96-13.07L93.96-13.07L93.96-13.07Q94.38-12.10 94.62-11.13L94.62-11.13L94.62-11.13Q94.86-9.80 95.17-8.59L95.17-8.59L95.17-8.59Q95.47-7.38 95.95-6.41L95.95-6.41L95.95-6.41Q97.28-3.39 99.46-0.60L99.46-0.60L99.46-0.60Q99.70 0 99.58 0ZM119.31-54.33L119.31-54.33L119.31-54.33Q119.31-51.79 117.85-49.85L117.85-49.85L117.85-49.85Q116.40-47.92 114.34-46.59L114.34-46.59L114.34-46.59Q113.98-46.34 113.86-46.65L113.86-46.65L113.86-46.65Q113.74-46.95 113.74-47.07L113.74-47.07L113.74-47.07Q113.74-47.80 114.34-48.82L114.34-48.82L114.34-48.82Q114.95-49.85 115.74-51.00L115.74-51.00L115.74-51.00Q116.52-52.15 117.25-53.36L117.25-53.36L117.25-53.36Q117.97-54.57 118.22-55.54L118.22-55.54L118.22-55.54Q118.58-56.14 118.94-55.54L118.94-55.54L118.94-55.54Q119.31-54.93 119.31-54.33ZM185.61-86.64L185.61-86.64L185.61-86.64Q185.37-87.00 184.95-87.79L184.95-87.79L184.95-87.79Q184.52-88.57 184.77-88.81L184.77-88.81L184.77-88.81Q185.01-89.06 185.55-88.69L185.55-88.69L185.55-88.69Q186.10-88.33 186.22-88.21L186.22-88.21L186.22-88.21Q188.40-86.64 190.27-83.85L190.27-83.85L190.27-83.85Q192.15-81.07 193.66-77.74L193.66-77.74L193.66-77.74Q195.17-74.41 196.38-70.78L196.38-70.78L196.38-70.78Q197.59-67.16 198.32-63.89L198.32-63.89L198.32-63.89Q200.13-55.90 201.40-48.16L201.40-48.16L201.40-48.16Q202.67-40.41 202.67-32.19L202.67-32.19L202.67-32.19Q202.67-31.94 202.74-30.73L202.74-30.73L202.74-30.73Q202.80-29.52 202.31-29.28L202.31-29.28L202.31-29.28Q201.95-29.52 201.53-30.49L201.53-30.49L201.53-30.49Q201.10-31.46 200.98-31.82L200.98-31.82L200.98-31.82Q199.53-36.30 198.38-42.05L198.38-42.05L198.38-42.05Q197.23-47.80 196.26-52.51L196.26-52.51L196.26-52.51Q195.54-56.14 194.93-59.47L194.93-59.47L194.93-59.47Q194.33-62.80 193.54-65.94L193.54-65.94L193.54-65.94Q192.75-69.09 191.72-72.30L191.72-72.30L191.72-72.30Q190.70-75.50 189.24-79.01L189.24-79.01L189.24-79.01Q189.00-79.50 188.46-80.71L188.46-80.71L188.46-80.71Q187.91-81.92 187.31-83.13L187.31-83.13L187.31-83.13Q186.70-84.34 186.22-85.37L186.22-85.37L186.22-85.37Q185.73-86.39 185.61-86.64ZM214.65 3.02L214.65 3.02L214.65 3.02Q213.32 2.30 212.84 2.12L212.84 2.12L212.84 2.12Q212.35 1.94 211.02 1.09L211.02 1.09L211.02 1.09Q208.12-0.60 205.70-3.33L205.70-3.33L205.70-3.33Q203.28-6.05 201.34-9.32L201.34-9.32L201.34-9.32Q199.41-12.58 197.90-16.27L197.90-16.27L197.90-16.27Q196.38-19.96 195.29-23.59L195.29-23.59L195.29-23.59Q192.87-22.02 189.55-21.72L189.55-21.72L189.55-21.72Q186.22-21.42 183.44-21.42L183.44-21.42L183.44-21.42Q179.93-21.42 176.48-21.66L176.48-21.66L176.48-21.66Q173.03-21.90 169.52-21.90L169.52-21.90L169.52-21.90Q166.13-15.61 163.17-9.74L163.17-9.74L163.17-9.74Q160.20-3.87 158.51 1.21L158.51 1.21L158.51 1.21Q158.51 1.33 158.39 1.75L158.39 1.75L158.39 1.75Q158.27 2.18 158.03 2.18L158.03 2.18L158.03 2.18Q157.66 2.18 157.66 1.33L157.66 1.33L157.66 1.33Q157.66 0.48 157.66 0.24L157.66 0.24L157.66 0.24Q157.66-4.60 160.02-10.59L160.02-10.59L160.02-10.59Q162.38-16.58 165.29-22.38L165.29-22.38L163.47-22.51L163.47-22.51Q162.74-20.81 161.47-17.79L161.47-17.79L161.47-17.79Q160.20-14.76 159.05-11.49L159.05-11.49L159.05-11.49Q157.90-8.23 157.00-5.20L157.00-5.20L157.00-5.20Q156.09-2.18 156.09-0.36L156.09-0.36L156.09-0.36Q156.09 0 155.73 0L155.73 0L155.73 0Q155.24 0 155.00-0.79L155.00-0.79L155.00-0.79Q154.76-1.57 154.58-2.54L154.58-2.54L154.58-2.54Q154.40-3.51 154.34-4.54L154.34-4.54L154.34-4.54Q154.27-5.57 154.27-5.93L154.27-5.93L154.27-5.93Q154.27-10.16 155.36-14.82L155.36-14.82L155.36-14.82Q156.45-19.48 158.27-23.35L158.27-23.35L156.69-23.59L156.69-23.59Q155.61-20.93 154.64-18.33L154.64-18.33L154.64-18.33Q153.67-15.73 152.94-12.95L152.94-12.95L152.94-12.95Q152.94-12.71 152.82-12.34L152.82-12.34L152.82-12.34Q152.70-11.98 152.46-12.10L152.46-12.10L152.46-12.10Q152.22-12.58 152.16-13.25L152.16-13.25L152.16-13.25Q152.10-13.91 152.10-14.40L152.10-14.40L152.10-14.40Q152.10-19.48 153.91-24.20L153.91-24.20L153.91-24.20Q154.52-25.41 155.12-25.41L155.12-25.41L155.12-25.41Q157.66-26.14 160.26-26.26L160.26-26.26L160.26-26.26Q162.87-26.38 165.65-26.38L165.65-26.38L165.65-26.38Q171.70-26.38 177.63-25.47L177.63-25.47L177.63-25.47Q183.56-24.56 189.49-24.56L189.49-24.56L189.49-24.56Q192.39-24.56 194.81-25.05L194.81-25.05L194.57-26.98L194.57-26.98Q193.24-26.62 191.72-26.50L191.72-26.50L191.72-26.50Q190.21-26.38 188.88-26.38L188.88-26.38L188.88-26.38Q184.16-26.38 179.14-27.35L179.14-27.35L179.14-27.35Q174.12-28.31 169.52-29.64L169.52-29.64L169.52-29.64Q169.28-29.89 168.55-30.07L168.55-30.07L168.55-30.07Q167.83-30.25 167.83-30.61L167.83-30.61L167.83-30.61Q167.83-30.86 168.55-31.04L168.55-31.04L168.55-31.04Q169.28-31.22 169.52-31.22L169.52-31.22L169.52-31.22Q171.21-31.34 172.85-31.40L172.85-31.40L172.85-31.40Q174.48-31.46 176.18-31.46L176.18-31.46L176.18-31.46Q178.96-31.46 181.74-31.40L181.74-31.40L181.74-31.40Q184.52-31.34 187.43-31.34L187.43-31.34L187.43-31.34Q188.88-31.34 190.45-31.34L190.45-31.34L190.45-31.34Q192.03-31.34 193.48-31.46L193.48-31.46L193.24-32.79L191.66-32.79L191.66-32.79Q185.86-32.79 180.11-33.88L180.11-33.88L180.11-33.88Q174.36-34.97 168.55-34.97L168.55-34.97L168.55-34.97Q163.59-34.97 159.78-33.76L159.78-33.76L159.78-33.76Q155.97-32.55 153.25-30.98L153.25-30.98L153.25-30.98Q150.52-29.40 148.83-27.83L148.83-27.83L148.83-27.83Q147.14-26.26 146.41-25.53L146.41-25.53L146.41-25.53Q146.17-25.41 146.17-25.41L146.17-25.41L146.17-25.41Q146.05-25.41 146.05-25.65L146.05-25.65L146.05-25.65Q146.05-25.77 146.17-25.89L146.17-25.89L146.17-25.89Q148.35-30.13 151.49-32.97L151.49-32.97L151.49-32.97Q154.64-35.82 159.24-37.27L159.24-37.27L159.24-37.27Q163.83-47.07 168.73-56.75L168.73-56.75L168.73-56.75Q173.63-66.43 179.08-75.87L179.08-75.87L179.08-75.87Q179.20-76.11 179.56-76.65L179.56-76.65L179.56-76.65Q179.93-77.20 180.29-77.20L180.29-77.20L180.29-77.20Q180.41-77.08 180.41-76.96L180.41-76.96L180.41-76.71L180.41-76.71Q180.41-75.75 180.29-75.26L180.29-75.26L180.29-75.26Q177.99-65.46 173.51-56.39L173.51-56.39L173.51-56.39Q169.04-47.31 164.32-38.48L164.32-38.48L166.62-38.60L166.62-38.60Q166.98-39.32 168.49-41.74L168.49-41.74L168.49-41.74Q170.00-44.16 171.76-46.77L171.76-46.77L171.76-46.77Q173.51-49.37 174.97-51.49L174.97-51.49L174.97-51.49Q176.42-53.60 176.78-53.60L176.78-53.60L176.90-53.24L176.90-53.24Q176.90-52.63 176.18-50.58L176.18-50.58L176.18-50.58Q175.45-48.52 174.48-46.10L174.48-46.10L174.48-46.10Q173.51-43.68 172.61-41.56L172.61-41.56L172.61-41.56Q171.70-39.45 171.34-38.60L171.34-38.60L171.34-38.60Q172.06-38.60 172.79-38.54L172.79-38.54L172.79-38.54Q173.51-38.48 174.24-38.48L174.24-38.48L174.24-38.48Q176.42-42.83 178.90-47.61L178.90-47.61L178.90-47.61Q181.38-52.39 183.19-57.35L183.19-57.35L183.19-57.35Q185.01-62.31 185.67-67.40L185.67-67.40L185.67-67.40Q186.34-72.48 184.89-77.44L184.89-77.44L184.89-77.44Q184.89-76.83 184.59-75.02L184.59-75.02L184.59-75.02Q184.28-73.20 183.80-71.21L183.80-71.21L183.80-71.21Q183.31-69.21 182.83-67.70L182.83-67.70L182.83-67.70Q182.35-66.19 181.86-66.19L181.86-66.19L181.86-66.19Q181.50-66.19 181.56-66.67L181.56-66.67L181.56-66.67Q181.62-67.16 181.62-67.28L181.62-67.28L181.62-67.28Q181.62-70.42 182.04-73.51L182.04-73.51L182.04-73.51Q182.47-76.59 182.47-79.74L182.47-79.74L182.47-79.74Q182.47-83.97 181.14-87.97L181.14-87.97L181.14-87.97Q181.14-88.09 180.77-89.00L180.77-89.00L180.77-89.00Q180.41-89.90 181.02-89.90L181.02-89.90L181.02-89.90Q181.26-89.90 181.86-89.30L181.86-89.30L181.86-89.30Q183.07-88.09 184.22-86.03L184.22-86.03L184.22-86.03Q185.37-83.97 186.34-81.61L186.34-81.61L186.34-81.61Q187.31-79.25 188.15-76.96L188.15-76.96L188.15-76.96Q189.00-74.66 189.49-73.08L189.49-73.08L189.49-73.08Q191.06-67.88 192.09-62.62L192.09-62.62L192.09-62.62Q193.12-57.35 193.90-52.09L193.90-52.09L193.90-52.09Q194.69-46.83 195.54-41.50L195.54-41.50L195.54-41.50Q196.38-36.18 197.47-30.98L197.47-30.98L197.47-30.98Q198.56-25.89 200.07-21.05L200.07-21.05L200.07-21.05Q201.59-16.21 203.76-11.86L203.76-11.86L203.76-11.86Q205.94-7.50 208.79-3.81L208.79-3.81L208.79-3.81Q211.63-0.12 215.38 2.66L215.38 2.66L215.38 2.66Q215.98 3.27 215.80 3.45L215.80 3.45L215.80 3.45Q215.62 3.63 214.65 3.02ZM214.05-8.71L214.41-7.26L214.41-7.26Q214.53-6.53 214.29-6.59L214.29-6.59L214.29-6.59Q214.05-6.65 213.75-7.02L213.75-7.02L213.75-7.02Q213.44-7.38 213.14-7.87L213.14-7.87L213.14-7.87Q212.84-8.35 212.84-8.47L212.84-8.47L212.84-8.47Q209.93-13.79 208.24-19.30L208.24-19.30L208.24-19.30Q206.55-24.80 205.58-30.43L205.58-30.43L205.58-30.43Q204.61-36.06 203.95-41.81L203.95-41.81L203.95-41.81Q203.28-47.55 202.37-53.54L202.37-53.54L202.37-53.54Q201.46-59.53 200.01-65.70L200.01-65.70L200.01-65.70Q198.56-71.87 195.90-78.29L195.90-78.29L195.90-78.29Q195.78-78.53 195.54-79.13L195.54-79.13L195.54-79.13Q195.29-79.74 195.54-79.86L195.54-79.86L195.54-79.86Q195.78-79.86 196.14-79.50L196.14-79.50L196.62-79.01L196.62-79.01Q199.29-75.87 201.34-70.66L201.34-70.66L201.34-70.66Q203.40-65.46 204.97-59.53L204.97-59.53L204.97-59.53Q206.55-53.60 207.58-47.80L207.58-47.80L207.58-47.80Q208.60-41.99 209.21-37.63L209.21-37.63L209.21-37.63Q210.18-30.73 211.27-23.11L211.27-23.11L211.27-23.11Q212.35-15.49 214.05-8.71L214.05-8.71ZM178.47-37.99L178.47-37.99L178.47-37.99Q181.98-37.63 185.43-37.15L185.43-37.15L185.43-37.15Q188.88-36.66 192.39-36.42L192.39-36.42L192.39-36.42Q191.06-42.83 190.09-49.13L190.09-49.13L190.09-49.13Q189.12-55.42 188.28-61.95L188.28-61.95L188.28-61.95Q186.70-55.66 183.98-49.73L183.98-49.73L183.98-49.73Q181.26-43.80 178.47-37.99ZM218.28 1.69L218.28 1.69L218.28 1.69Q215.86 0.60 214.05-0.42L214.05-0.42L214.05-0.42Q212.23-1.45 210.90-3.27L210.90-3.27L210.90-3.27Q208.85-6.05 207.70-8.83L207.70-8.83L207.70-8.83Q206.55-11.62 205.82-14.04L205.82-14.04L205.82-14.04Q205.58-15.00 205.40-16.21L205.40-16.21L205.40-16.21Q205.22-17.42 205.46-17.42L205.46-17.42L205.46-17.42Q205.94-17.42 206.67-15.85L206.67-15.85L206.67-15.85Q207.39-14.28 208.00-13.19L208.00-13.19L208.00-13.19Q209.81-9.44 212.60-5.63L212.60-5.63L212.60-5.63Q215.38-1.81 218.65 0.60L218.65 0.60L218.65 0.60Q219.61 1.45 219.25 1.69L219.25 1.69L219.25 1.69Q218.89 1.94 218.28 1.69ZM146.77-21.54L146.77-21.54L146.77-21.54Q146.77-21.54 146.53-21.54L146.53-21.54L146.41-21.54L146.41-21.54Q146.41-21.90 146.53-22.26L146.53-22.26L146.53-22.26Q146.65-22.63 146.77-22.99L146.77-22.99L146.77-22.99Q147.74-25.05 148.65-26.08L148.65-26.08L148.65-26.08Q149.56-27.10 151.61-28.31L151.61-28.31L151.61-28.31Q152.82-29.04 155.00-29.77L155.00-29.77L155.00-29.77Q157.18-30.49 158.51-30.49L158.51-30.49L158.51-30.49Q158.75-30.49 159.18-30.43L159.18-30.43L159.18-30.43Q159.60-30.37 159.60-30.01L159.60-30.01L159.60-30.01Q159.60-29.64 158.33-29.04L158.33-29.04L158.33-29.04Q157.06-28.43 156.69-28.19L156.69-28.19L156.69-28.19Q152.10-25.41 149.92-23.96L149.92-23.96L149.92-23.96Q147.74-22.51 146.77-21.54ZM265.96-56.51L265.96-56.51L265.96-56.51Q266.44-54.57 266.14-52.63L266.14-52.63L266.14-52.63Q265.84-50.70 265.17-49.00L265.17-49.00L265.17-49.00Q264.51-47.31 263.48-46.04L263.48-46.04L263.48-46.04Q262.45-44.77 261.48-44.04L261.48-44.04L261.48-44.04Q258.58-41.99 254.95-40.23L254.95-40.23L254.95-40.23Q251.32-38.48 247.81-37.15L247.81-37.15L247.81-37.15Q247.57-37.03 246.96-36.84L246.96-36.84L246.96-36.84Q246.36-36.66 246.11-37.03L246.11-37.03L246.11-37.03Q245.99-37.15 246.30-37.63L246.30-37.63L246.30-37.63Q246.60-38.12 246.72-38.24L246.72-38.24L246.72-38.24Q247.93-39.69 249.99-41.38L249.99-41.38L249.99-41.38Q252.04-43.08 253.62-44.04L253.62-44.04L253.62-44.04Q254.10-44.41 255.98-45.86L255.98-45.86L255.98-45.86Q257.85-47.31 259.85-49.31L259.85-49.31L259.85-49.31Q261.84-51.30 263.54-53.36L263.54-53.36L263.54-53.36Q265.23-55.42 265.35-56.87L265.35-56.87L265.35-56.87Q265.35-57.11 265.41-57.17L265.41-57.17L265.41-57.17Q265.47-57.23 265.47-57.35L265.47-57.35L265.47-57.35Q265.47-57.48 265.59-57.48L265.59-57.48L265.59-57.48Q265.84-57.35 265.90-57.05L265.90-57.05L265.90-57.05Q265.96-56.75 265.96-56.51ZM243.21-66.31L243.21-66.31L243.21-66.31Q241.52-58.93 238.73-51.36L238.73-51.36L238.73-51.36Q235.95-43.80 232.80-37.27L232.80-37.27L232.80-37.27Q232.56-36.66 232.14-35.63L232.14-35.63L232.14-35.63Q231.72-34.61 231.35-34.61L231.35-34.61L231.35-34.61Q231.11-34.85 231.17-35.88L231.17-35.88L231.17-35.88Q231.23-36.91 231.35-37.27L231.35-37.27L231.35-37.27Q231.72-39.08 232.32-41.87L232.32-41.87L232.32-41.87Q232.92-44.65 233.71-47.80L233.71-47.80L233.71-47.80Q234.50-50.94 235.28-53.97L235.28-53.97L235.28-53.97Q236.07-56.99 236.80-59.29L236.80-59.29L236.80-59.29Q239.22-67.40 239.94-75.32L239.94-75.32L239.94-75.32Q240.67-83.25 239.34-90.51L239.34-90.51L239.34-90.51Q239.22-90.99 239.28-91.23L239.28-91.23L239.28-91.23Q239.34-91.48 239.34-91.60L239.34-91.60L239.34-91.60Q239.94-91.84 240.43-90.87L240.43-90.87L240.43-90.87Q241.88-88.94 242.73-85.85L242.73-85.85L242.73-85.85Q243.57-82.76 243.88-79.32L243.88-79.32L243.88-79.32Q244.18-75.87 244.00-72.42L244.00-72.42L244.00-72.42Q243.81-68.97 243.21-66.31ZM236.19-93.53L236.19-93.53L236.19-93.53Q238.61-87.60 238.37-80.89L238.37-80.89L238.37-80.89Q238.13-74.17 236.43-67.03L236.43-67.03L236.43-67.03Q234.74-59.89 232.26-52.57L232.26-52.57L232.26-52.57Q229.78-45.25 227.72-38.12L227.72-38.12L227.72-38.12Q226.39-33.64 225.60-28.62L225.60-28.62L225.60-28.62Q224.82-23.59 224.82-18.57L224.82-18.57L224.82-18.57Q224.82-13.55 225.79-8.83L225.79-8.83L225.79-8.83Q226.75-4.11 229.05-0.12L229.05-0.12L229.05-0.12Q229.42 0.48 228.99 0.36L228.99 0.36L228.99 0.36Q228.57 0.24 228.33 0L228.33 0L228.33 0Q225.30-3.75 223.79-8.65L223.79-8.65L223.79-8.65Q222.28-13.55 221.97-19.00L221.97-19.00L221.97-19.00Q221.67-24.44 222.40-30.13L222.40-30.13L222.40-30.13Q223.12-35.82 224.58-40.90L224.58-40.90L224.58-40.90Q226.75-48.04 228.99-55.05L228.99-55.05L228.99-55.05Q231.23-62.07 232.92-68.73L232.92-68.73L232.92-68.73Q234.62-75.38 235.41-81.61L235.41-81.61L235.41-81.61Q236.19-87.85 235.34-93.53L235.34-93.53L235.34-93.53Q235.34-93.77 235.28-94.08L235.28-94.08L235.28-94.08Q235.22-94.38 235.47-94.38L235.47-94.38L235.47-94.38Q235.71-94.38 235.89-94.08L235.89-94.08L235.89-94.08Q236.07-93.77 236.19-93.53ZM268.26-3.02L268.26-3.02L268.26-3.02Q269.22-2.78 268.98-2.42L268.98-2.42L268.98-2.42Q268.74-2.06 268.38-1.94L268.38-1.94L268.38-1.94Q264.63-0.97 261.12-1.57L261.12-1.57L261.12-1.57Q257.61-2.18 255.31-3.87L255.31-3.87L255.31-3.87Q252.28-6.05 250.05-9.56L250.05-9.56L250.05-9.56Q247.81-13.07 245.75-16.21L245.75-16.21L245.75-16.21Q245.63-16.46 245.39-16.88L245.39-16.88L245.39-16.88Q245.15-17.30 245.27-17.54L245.27-17.54L245.27-17.54Q245.51-17.91 245.93-17.73L245.93-17.73L245.93-17.73Q246.36-17.54 246.48-17.42L246.48-17.42L246.48-17.42Q248.05-16.70 250.29-15.13L250.29-15.13L250.29-15.13Q252.53-13.55 253.62-12.22L253.62-12.22L253.62-12.22Q254.58-11.13 256.28-9.62L256.28-9.62L256.28-9.62Q257.97-8.11 259.97-6.78L259.97-6.78L259.97-6.78Q261.96-5.45 264.14-4.36L264.14-4.36L264.14-4.36Q266.32-3.27 268.26-3.02ZM272.13-5.69L272.13-5.69L272.13-5.69Q272.73-5.57 272.43-5.32L272.43-5.32L272.43-5.32Q272.13-5.08 271.64-5.08L271.64-5.08L271.64-5.08Q267.77-4.36 264.75-5.87L264.75-5.87L264.75-5.87Q261.72-7.38 259.12-9.86L259.12-9.86L259.12-9.86Q256.52-12.34 254.04-15.25L254.04-15.25L254.04-15.25Q251.56-18.15 248.78-20.45L248.78-20.45L248.78-20.45Q245.27-23.23 240.12-24.44L240.12-24.44L240.12-24.44Q234.98-25.65 229.05-23.35L229.05-23.35L229.05-23.35Q228.45-23.11 228.57-23.47L228.57-23.47L228.57-23.47Q228.69-23.84 228.93-24.08L228.93-24.08L228.93-24.08Q230.02-24.80 231.23-25.47L231.23-25.47L231.23-25.47Q232.44-26.14 233.53-26.50L233.53-26.50L233.53-26.50Q234.98-32.91 237.04-39.26L237.04-39.26L237.04-39.26Q239.10-45.62 241.15-52.27L241.15-52.27L241.15-52.27Q243.09-58.44 244.66-65.22L244.66-65.22L244.66-65.22Q246.23-72.00 245.99-79.62L245.99-79.62L245.99-79.62Q245.99-80.34 246.23-80.34L246.23-80.34L246.23-80.34Q246.48-80.34 246.54-79.98L246.54-79.98L246.54-79.98Q246.60-79.62 246.84-79.38L246.84-79.38L246.84-79.38Q248.05-76.83 248.05-72.60L248.05-72.60L248.05-72.60Q248.05-68.36 247.32-63.46L247.32-63.46L247.32-63.46Q246.60-58.56 245.39-53.48L245.39-53.48L245.39-53.48Q244.18-48.40 242.97-44.29L242.97-44.29L242.97-44.29Q245.39-46.83 248.35-48.58L248.35-48.58L248.35-48.58Q251.32-50.34 254.28-51.97L254.28-51.97L254.28-51.97Q257.25-53.60 259.79-55.66L259.79-55.66L259.79-55.66Q262.33-57.72 263.90-60.86L263.90-60.86L263.90-60.86Q263.90-60.98 263.96-61.10L263.96-61.10L263.96-61.10Q264.02-61.23 264.14-60.98L264.14-60.98L264.14-60.98Q264.14-60.86 264.20-60.62L264.20-60.62L264.20-60.62Q264.26-60.38 264.26-60.14L264.26-60.14L264.26-60.14Q264.02-56.27 261.96-53.66L261.96-53.66L261.96-53.66Q259.91-51.06 257.00-49.00L257.00-49.00L257.00-49.00Q254.10-46.95 250.71-45.13L250.71-45.13L250.71-45.13Q247.32-43.32 244.42-41.14L244.42-41.14L244.42-41.14Q240.91-38.48 239.70-34.73L239.70-34.73L239.70-34.73Q238.49-30.98 237.64-27.35L237.64-27.35L237.64-27.35Q238.25-28.19 238.91-29.22L238.91-29.22L238.91-29.22Q239.58-30.25 240.19-31.16L240.19-31.16L240.19-31.16Q240.79-32.06 241.27-32.55L241.27-32.55L241.27-32.55Q241.76-33.03 242-32.79L242-32.79L242-32.79Q242.12-32.67 241.94-32.00L241.94-32.00L241.94-32.00Q241.76-31.34 241.52-30.49L241.52-30.49L241.52-30.49Q241.27-29.64 241.03-28.80L241.03-28.80L241.03-28.80Q240.79-27.95 240.67-27.47L240.67-27.47L240.67-27.47Q241.27-27.35 241.70-27.35L241.70-27.35L241.70-27.35Q242.12-27.35 242.48-27.22L242.48-27.22L242.48-27.22Q245.27-31.22 249.02-33.94L249.02-33.94L249.02-33.94Q252.77-36.66 256.88-39.08L256.88-39.08L256.88-39.08Q259.67-40.78 262.27-42.71L262.27-42.71L262.27-42.71Q264.87-44.65 266.93-47.80L266.93-47.80L266.93-47.80Q267.05-48.16 267.29-47.92L267.29-47.92L267.29-47.92Q267.41-47.80 267.35-47.61L267.35-47.61L267.35-47.61Q267.29-47.43 267.41-47.07L267.41-47.07L267.41-47.07Q267.53-44.53 265.96-42.23L265.96-42.23L265.96-42.23Q264.38-39.93 262.09-37.99L262.09-37.99L262.09-37.99Q259.79-36.06 257.37-34.48L257.37-34.48L257.37-34.48Q254.95-32.91 253.62-31.82L253.62-31.82L253.62-31.82Q251.68-30.37 249.38-29.10L249.38-29.10L249.38-29.10Q247.08-27.83 245.02-26.74L245.02-26.74L245.02-26.74Q248.66-25.53 251.80-22.87L251.80-22.87L251.80-22.87Q254.58-20.69 257.00-17.97L257.00-17.97L257.00-17.97Q259.42-15.25 261.84-12.71L261.84-12.71L261.84-12.71Q264.26-10.16 266.74-8.23L266.74-8.23L266.74-8.23Q269.22-6.29 272.13-5.69ZM234.13-17.18L234.13-17.18L234.13-17.18Q233.89-16.46 233.47-15.13L233.47-15.13L233.47-15.13Q233.05-13.79 232.80-12.58L232.80-12.58L232.80-12.58Q232.56-11.98 232.50-11.37L232.50-11.37L232.50-11.37Q232.44-10.77 232.20-10.89L232.20-10.89L232.20-10.89Q231.84-11.01 231.65-11.86L231.65-11.86L231.65-11.86Q231.47-12.71 231.47-13.31L231.47-13.31L231.47-13.31Q231.47-14.16 231.47-15.25L231.47-15.25L231.47-15.25Q231.47-16.34 231.65-17.24L231.65-17.24L231.65-17.24Q231.84-18.15 232.38-18.75L232.38-18.75L232.38-18.75Q232.92-19.36 234.01-19.36L234.01-19.36L234.01-19.36Q235.59-19.24 237.46-18.21L237.46-18.21L237.46-18.21Q239.34-17.18 241.27-15.55L241.27-15.55L241.27-15.55Q243.21-13.91 245.15-11.92L245.15-11.92L245.15-11.92Q247.08-9.92 249.02-7.87L249.02-7.87L249.02-7.87Q251.07-5.57 253.56-3.21L253.56-3.21L253.56-3.21Q256.04-0.85 259.54 0.12L259.54 0.12L259.54 0.12Q260.03 0.36 260.03 0.54L260.03 0.54L260.03 0.54Q260.03 0.73 259.42 0.73L259.42 0.73L259.42 0.73Q257.00 0.73 254.52-0.30L254.52-0.30L254.52-0.30Q252.04-1.33 249.68-2.84L249.68-2.84L249.68-2.84Q247.32-4.36 245.33-6.05L245.33-6.05L245.33-6.05Q243.33-7.74 241.88-9.07L241.88-9.07L241.88-9.07Q239.82-11.01 237.83-13.19L237.83-13.19L237.83-13.19Q235.83-15.37 234.13-17.18ZM232.68-0.12L232.68-0.12L232.68-0.12Q232.92 0.24 232.62 0.36L232.62 0.36L232.62 0.36Q232.32 0.48 231.72 0L231.72 0L231.72 0Q230.26-1.33 229.05-3.21L229.05-3.21L229.05-3.21Q227.84-5.08 227.24-8.95L227.24-8.95L227.24-8.95Q226.75-11.25 226.57-13.85L226.57-13.85L226.57-13.85Q226.39-16.46 227.00-18.51L227.00-18.51L227.00-18.51Q227.60-20.57 229.29-21.96L229.29-21.96L229.29-21.96Q230.99-23.35 234.26-23.35L234.26-23.35L234.26-23.35Q235.10-23.35 236.19-23.11L236.19-23.11L236.19-23.11Q237.28-22.87 238.19-22.57L238.19-22.57L238.19-22.57Q239.10-22.26 239.64-21.84L239.64-21.84L239.64-21.84Q240.19-21.42 239.82-21.05L239.82-21.05L239.82-21.05Q239.70-20.69 238.55-20.81L238.55-20.81L238.55-20.81Q237.40-20.93 237.16-20.93L237.16-20.93L237.16-20.93Q235.71-21.18 234.32-21.24L234.32-21.24L234.32-21.24Q232.92-21.30 231.84-20.93L231.84-20.93L231.84-20.93Q230.75-20.57 230.08-19.54L230.08-19.54L230.08-19.54Q229.42-18.51 229.42-16.58L229.42-16.58L229.42-16.58Q229.42-12.46 230.14-8.83L230.14-8.83L230.14-8.83Q230.63-6.41 231.17-4.30L231.17-4.30L231.17-4.30Q231.72-2.18 232.68-0.12Z" fill="url(#editing-outline-gradient)"></path></g></g><style>text {
  font-size: 64px;
  font-family: Arial Black;
  dominant-baseline: central;
  text-anchor: middle;
}</style></svg>